<?xml version="1.0" encoding="utf-8"?>
<!-- Generator: Adobe Illustrator 28.0.0, SVG Export Plug-In . SVG Version: 6.00 Build 0)  -->
<svg version="1.1" id="Layer_1" xmlns="http://www.w3.org/2000/svg" xmlns:xlink="http://www.w3.org/1999/xlink" x="0px" y="0px"
	 viewBox="0 0 1366 768" style="enable-background:new 0 0 1366 768;" xml:space="preserve">
<style type="text/css">
	.st0{fill:#FF1D25;}
	.st1{fill:#FFFFFF;}
</style>
<g>
	<path class="st0" d="M498.14,346.07v-35.5h7.1v35.5H498.14z M505.24,303.47h28.4v7.1h-28.4V303.47z M505.24,346.07h21.3v7.1h-21.3
		V346.07z M526.54,346.07v-21.3h-7.1v-7.1h14.2v28.4H526.54z"/>
	<path class="st0" d="M547.84,338.97v7.1h-7.1v-7.1H547.84z M569.13,324.77h-21.3v-7.1h21.3V324.77z M576.23,324.77v28.4h-28.4v-7.1
		h21.3v-7.1h-21.3v-7.1h21.3v-7.1H576.23z"/>
	<path class="st0" d="M597.54,324.77h-7.1v28.4h-7.1v-35.5h14.2V324.77z M604.64,324.77v14.2h-7.1v-14.2H604.64z M611.74,317.67v7.1
		h-7.1v-7.1H611.74z M618.83,324.77v28.4h-7.1v-28.4H618.83z"/>
	<path class="st0" d="M661.44,324.77v14.2h-28.4v7.1h-7.1v-21.3h7.1v7.1h21.3v-7.1H661.44z M633.04,317.67h21.3v7.1h-21.3V317.67z
		 M633.04,346.07h28.4v7.1h-28.4V346.07z"/>
	<path class="st0" d="M696.94,346.07v-35.5h7.1v35.5H696.94z M704.04,303.47h21.3v7.1h-21.3V303.47z M725.33,353.17h-21.3v-7.1h21.3
		V353.17z M732.44,310.57v35.5h-7.1v-35.5H732.44z"/>
	<path class="st0" d="M739.54,338.97v-21.3h7.1v21.3H739.54z M753.74,338.97v7.1h-7.1v-7.1H753.74z M753.74,346.07h7.1v7.1h-7.1
		V346.07z M760.83,338.97h7.1v7.1h-7.1V338.97z M775.04,317.67v21.3h-7.1v-21.3H775.04z"/>
	<path class="st0" d="M817.64,324.77v14.2h-28.4v7.1h-7.1v-21.3h7.1v7.1h21.3v-7.1H817.64z M789.24,317.67h21.3v7.1h-21.3V317.67z
		 M789.24,346.07h28.4v7.1h-28.4V346.07z"/>
	<path class="st0" d="M831.83,324.77h7.1v7.1h-7.1v21.3h-7.1v-35.5h7.1V324.77z M853.13,324.77h-14.2v-7.1h14.2V324.77z
		 M860.24,324.77v7.1h-7.1v-7.1H860.24z"/>
</g>
<g>
	<path class="st1" d="M428.8,394.68h-6.2v18.6h-3.1v-18.6h-6.2v-3.1h15.5V394.68z"/>
	<path class="st1" d="M438.1,400.89v3.1H435v9.3h-3.1v-21.7h3.1v9.3H438.1z M444.3,400.89h-6.2v-3.1h6.2V400.89z M447.4,400.89v12.4
		h-3.1v-12.4H447.4z"/>
	<path class="st1" d="M453.6,407.09v3.1h-3.1v-3.1H453.6z M462.9,400.89h-9.3v-3.1h9.3V400.89z M466,400.89v12.4h-12.4v-3.1h9.3
		v-3.1h-9.3v-3.1h9.3v-3.1H466z"/>
	<path class="st1" d="M481.5,400.89h-9.3v12.4h-3.1v-15.5h12.4V400.89z M484.6,400.89v12.4h-3.1v-12.4H484.6z"/>
	<path class="st1" d="M493.9,403.99v3.1h-3.1v6.2h-3.1v-21.7h3.1v12.4H493.9z M497,403.99h-3.1v-3.1h3.1V403.99z M493.9,410.19v-3.1
		h3.1v3.1H493.9z M500.1,400.89H497v-3.1h3.1V400.89z M497,413.29v-3.1h3.1v3.1H497z"/>
	<path class="st1" d="M515.6,407.09v-9.3h3.1v9.3H515.6z M528,416.39h-12.4v-3.1H528V416.39z M531.1,397.79v15.5H528v-3.1h-9.3v-3.1
		h9.3v-9.3H531.1z"/>
	<path class="st1" d="M534.2,410.19v-9.3h3.1v9.3H534.2z M537.3,397.79h9.3v3.1h-9.3V397.79z M546.6,413.29h-9.3v-3.1h9.3V413.29z
		 M549.7,400.89v9.3h-3.1v-9.3H549.7z"/>
	<path class="st1" d="M552.8,410.19v-12.4h3.1v12.4H552.8z M568.3,397.79v15.5h-12.4v-3.1h9.3v-12.4H568.3z"/>
	<path class="st1" d="M590,394.68v3.1h6.2v3.1H590v12.4h-3.1v-12.4h-3.1v-3.1h3.1v-3.1H590z M590,394.68v-3.1h6.2v3.1H590z"/>
	<path class="st1" d="M599.3,410.19v-9.3h3.1v9.3H599.3z M602.4,397.79h9.3v3.1h-9.3V397.79z M611.7,413.29h-9.3v-3.1h9.3V413.29z
		 M614.8,400.89v9.3h-3.1v-9.3H614.8z"/>
	<path class="st1" d="M621,400.89h3.1v3.1H621v9.3h-3.1v-15.5h3.1V400.89z M630.3,400.89h-6.2v-3.1h6.2V400.89z M633.4,400.89v3.1
		h-3.1v-3.1H633.4z"/>
	<path class="st1" d="M648.9,407.09v-9.3h3.1v9.3H648.9z M655.1,407.09v3.1H652v-3.1H655.1z M655.1,410.19h3.1v3.1h-3.1V410.19z
		 M658.2,407.09h3.1v3.1h-3.1V407.09z M664.4,397.79v9.3h-3.1v-9.3H664.4z"/>
	<path class="st1" d="M670.6,391.58v3.1h-3.1v-3.1H670.6z M670.6,397.79v15.5h-3.1v-15.5H670.6z"/>
	<path class="st1" d="M676.8,400.89v3.1h-3.1v-3.1H676.8z M686.1,413.29h-12.4v-3.1h12.4V413.29z M676.8,397.79h12.4v3.1h-12.4
		V397.79z M676.8,403.99h9.3v3.1h-9.3V403.99z M686.1,410.19v-3.1h3.1v3.1H686.1z"/>
	<path class="st1" d="M695.4,391.58v3.1h-3.1v-3.1H695.4z M695.4,397.79v15.5h-3.1v-15.5H695.4z"/>
	<path class="st1" d="M701.6,410.19v-9.3h-3.1v-3.1h3.1v-6.2h3.1v6.2h3.1v3.1h-3.1v9.3H701.6z M704.7,413.29v-3.1h3.1v3.1H704.7z"/>
	<path class="st1" d="M714,391.58v3.1h-3.1v-3.1H714z M714,397.79v15.5h-3.1v-15.5H714z"/>
	<path class="st1" d="M729.5,400.89h-9.3v12.4h-3.1v-15.5h12.4V400.89z M732.6,400.89v12.4h-3.1v-12.4H732.6z"/>
	<path class="st1" d="M738.8,407.09h-3.1v-6.2h3.1V407.09z M748.1,416.39h-12.4v-3.1h12.4V416.39z M751.2,413.29h-3.1v-3.1h-9.3
		v-3.1h9.3v-6.2h-9.3v-3.1h12.4V413.29z"/>
	<path class="st1" d="M772.9,400.89h-3.1v12.4h-3.1v-15.5h6.2V400.89z M776,400.89v6.2h-3.1v-6.2H776z M779.1,397.79v3.1H776v-3.1
		H779.1z M782.2,400.89v12.4h-3.1v-12.4H782.2z"/>
	<path class="st1" d="M785.3,407.09v-9.3h3.1v9.3H785.3z M797.7,416.39h-12.4v-3.1h12.4V416.39z M800.8,397.79v15.5h-3.1v-3.1h-9.3
		v-3.1h9.3v-9.3H800.8z"/>
	<path class="st1" d="M828.7,400.89h-9.3v12.4h-3.1v-21.7h12.4v3.1h-9.3v3.1h9.3V400.89z M831.8,394.68v3.1h-3.1v-3.1H831.8z"/>
	<path class="st1" d="M834.9,410.19v-9.3h3.1v9.3H834.9z M838,397.79h9.3v3.1H838V397.79z M847.3,413.29H838v-3.1h9.3V413.29z
		 M850.4,400.89v9.3h-3.1v-9.3H850.4z"/>
	<path class="st1" d="M856.6,400.89h3.1v3.1h-3.1v9.3h-3.1v-15.5h3.1V400.89z M865.9,400.89h-6.2v-3.1h6.2V400.89z M869,400.89v3.1
		h-3.1v-3.1H869z"/>
	<path class="st1" d="M875.2,410.19v-9.3h-3.1v-3.1h3.1v-6.2h3.1v6.2h3.1v3.1h-3.1v9.3H875.2z M878.3,413.29v-3.1h3.1v3.1H878.3z"/>
	<path class="st1" d="M890.7,394.68v3.1h6.2v3.1h-6.2v12.4h-3.1v-12.4h-3.1v-3.1h3.1v-3.1H890.7z M890.7,394.68v-3.1h6.2v3.1H890.7z
		"/>
	<path class="st1" d="M900,410.19v-9.3h3.1v9.3H900z M903.1,397.79h9.3v3.1h-9.3V397.79z M912.4,413.29h-9.3v-3.1h9.3V413.29z
		 M915.5,400.89v9.3h-3.1v-9.3H915.5z"/>
	<path class="st1" d="M918.6,410.19v-18.6h3.1v18.6H918.6z M924.8,410.19v3.1h-3.1v-3.1H924.8z"/>
	<path class="st1" d="M931,391.58v3.1h-3.1v-3.1H931z M931,397.79v15.5h-3.1v-15.5H931z"/>
	<path class="st1" d="M934.1,410.19v-9.3h3.1v9.3H934.1z M937.2,397.79h9.3v3.1h-9.3V397.79z M946.5,413.29h-9.3v-3.1h9.3V413.29z
		 M949.6,400.89v9.3h-3.1v-9.3H949.6z"/>
</g>
</svg>
